<svg width="14" height="12" viewBox="0 0 14 12" fill="none" xmlns="http://www.w3.org/2000/svg">
<path d="M13.5883 6.40155L8.52578 11.4641C8.41826 11.568 8.27456 11.6261 8.125 11.6261C7.97544 11.6261 7.83174 11.568 7.72422 11.4641C7.61859 11.3574 7.55934 11.2134 7.55934 11.0633C7.55934 10.9132 7.61859 10.7691 7.72422 10.6625L11.8305 6.56327H0.8125C0.663316 6.56327 0.520242 6.50401 0.414753 6.39852C0.309263 6.29303 0.25 6.14996 0.25 6.00077C0.25 5.85159 0.309263 5.70851 0.414753 5.60302C0.520242 5.49754 0.663316 5.43827 0.8125 5.43827H11.8305L7.72422 1.33905C7.63452 1.22976 7.58868 1.09101 7.59562 0.949797C7.60255 0.80858 7.66177 0.674991 7.76174 0.575015C7.86172 0.47504 7.99531 0.415825 8.13653 0.408889C8.27774 0.401954 8.41649 0.447793 8.52578 0.537491L13.5883 5.59999C13.6939 5.70664 13.7532 5.85067 13.7532 6.00077C13.7532 6.15087 13.6939 6.29491 13.5883 6.40155Z" fill="#FFD400"/>
</svg>
