<svg width="14" height="14" viewBox="0 0 14 14" fill="none" xmlns="http://www.w3.org/2000/svg">
<path d="M3.64609 6.13516C3.56965 6.05537 3.51774 5.95529 3.49654 5.84684C3.47535 5.73839 3.48577 5.62613 3.52656 5.52344C3.56851 5.41975 3.64041 5.33091 3.73309 5.26829C3.82578 5.20567 3.93502 5.1721 4.04688 5.17188H6.4375V0.8125C6.4375 0.663316 6.49676 0.520242 6.60225 0.414753C6.70774 0.309263 6.85082 0.25 7 0.25C7.14918 0.25 7.29226 0.309263 7.39775 0.414753C7.50324 0.520242 7.5625 0.663316 7.5625 0.8125V5.17188H9.95312C10.065 5.1721 10.1742 5.20567 10.2669 5.26829C10.3596 5.33091 10.4315 5.41975 10.4734 5.52344C10.5142 5.62613 10.5246 5.73839 10.5035 5.84684C10.4823 5.95529 10.4304 6.05537 10.3539 6.13516L7.40078 9.08828C7.29326 9.19224 7.14956 9.25036 7 9.25036C6.85044 9.25036 6.70674 9.19224 6.59922 9.08828L3.64609 6.13516ZM13.1875 8.125C13.0383 8.125 12.8952 8.18426 12.7898 8.28975C12.6843 8.39524 12.625 8.53832 12.625 8.6875V12.625H1.375V8.6875C1.375 8.53832 1.31574 8.39524 1.21025 8.28975C1.10476 8.18426 0.961684 8.125 0.8125 8.125C0.663316 8.125 0.520242 8.18426 0.414753 8.28975C0.309263 8.39524 0.25 8.53832 0.25 8.6875V12.625C0.25 12.9234 0.368526 13.2095 0.579505 13.4205C0.790483 13.6315 1.07663 13.75 1.375 13.75H12.625C12.9234 13.75 13.2095 13.6315 13.4205 13.4205C13.6315 13.2095 13.75 12.9234 13.75 12.625V8.6875C13.75 8.53832 13.6907 8.39524 13.5852 8.28975C13.4798 8.18426 13.3367 8.125 13.1875 8.125Z" fill="#FFD500"/>
</svg>
